<svg width="120" height="120" viewBox="0 0 120 120" fill="none" xmlns="http://www.w3.org/2000/svg">
<rect width="120" height="120" rx="34" fill="url(#g)"/>
<path d="M36 65C36 47.8792 46.7452 35 61.5 35C77.24 35 86 47.62 86 61.5C86 76.4117 76.1417 86 61.5 86C51.68 86 44.36 81.68 40.76 74.48H59.36C62.6 74.48 65.12 72.56 65.12 69.68C65.12 66.68 62.6 64.88 59.36 64.88H36V65Z" fill="#120814"/>
<path d="M39 61C39 46.2 48.5 38 61 38C73.7 38 82 47.3 82 60C82 72.9 73 82 61 82C53 82 47.7 79.2 44 74.5H58.7C65.2 74.5 70.3 70.2 70.3 64.5C70.3 58.7 65.2 54.5 58.7 54.5H42.7C45.3 48 51.6 43.8 60.3 43.8C68.8 43.8 75.1 50.4 75.1 60C75.1 70 68.8 76 60.6 76C56.8 76 53.8 74.8 51.4 72.9" stroke="#fff7fb" stroke-width="5" stroke-linecap="round"/>
<path d="M84 34C90 42 93 50.5 93 61C93 74 87.3 85 77 91" stroke="#D79F52" stroke-width="5" stroke-linecap="round"/>
<defs><linearGradient id="g" x1="0" y1="0" x2="120" y2="120"><stop stop-color="#8F3A62"/><stop offset=".52" stop-color="#D79F52"/><stop offset="1" stop-color="#F7E6D5"/></linearGradient></defs>
</svg>